Coordinates
version=1
nRows=17
nColumns=24
inDegrees=yes

Units are S.I. units (second, meters, Newtons, ...)
Angles are in degrees.

endheader
time	pelvis_tilt	pelvis_list	pelvis_rotation	pelvis_tx	pelvis_ty	pelvis_tz	hip_flexion_r	hip_adduction_r	hip_rotation_r	knee_angle_r	ankle_angle_r	subtalar_angle_r	mtp_angle_r	hip_flexion_l	hip_adduction_l	hip_rotation_l	knee_angle_l	ankle_angle_l	subtalar_angle_l	mtp_angle_l	lumbar_extension	lumbar_bending	lumbar_rotation
      2.94000000	    -11.47279429	      9.06480692	     -2.75711740	     -2.35317604	     -0.03802544	     -0.27145599	     19.40834675	    -14.26293764	     -5.02154352	    -63.80604771	    -21.48592293	    -20.48356559	     15.35352162	     29.56533601	      9.80890563	     -5.21627237	    -24.07996064	     -1.16126745	    -15.56283274	     -0.75613386	      8.29352368	     -9.44307440	      1.52919392
      2.94500000	    -11.37929931	      8.87416817	     -2.79125216	     -2.34596227	     -0.03641356	     -0.27190416	     20.34750407	    -13.90031788	     -4.73937606	    -64.44014758	    -20.37863817	    -19.87749690	     15.85371721	     28.77922125	      9.71824598	     -5.06327995	    -23.75195518	     -0.83310380	    -15.47629617	     -0.70454140	      8.15825624	     -9.22776034	      1.39865183
      2.95000000	    -11.28790106	      8.70660247	     -2.80069855	     -2.33858952	     -0.03477944	     -0.27240737	     21.23657666	    -13.59093795	     -4.54327121	    -64.92497022	    -19.42478541	    -19.31632641	     16.70575399	     27.94869278	      9.67253973	     -4.84498153	    -23.35597051	     -0.49453084	    -15.38953325	     -0.72713918	      8.06163212	     -9.03557003	      1.28207322
      2.95500000	    -11.17374566	      8.44804420	     -2.80696585	     -2.33144381	     -0.03307569	     -0.27301549	     22.05463428	    -13.18094714	     -4.35104365	    -65.17906421	    -19.09961563	    -19.06933339	     20.13540955	     27.11881298	      9.55166508	     -4.56248589	    -23.00615671	     -0.09780733	    -15.32752272	     -1.27845857	      7.89053186	     -8.73454236	      1.11720311
      2.96000000	    -11.07759998	      8.17347424	     -2.81987572	     -2.32429403	     -0.03139359	     -0.27343445	     22.89052679	    -12.72962516	     -4.22715347	    -65.45281054	    -18.20190459	    -18.41119633	     20.60515719	     26.29956545	      9.36996767	     -4.38188062	    -22.62684276	      0.21591386	    -15.16756317	     -1.23311012	      7.74926174	     -8.43297157	      0.97337707
      2.96500000	    -10.93682130	      7.99585526	     -2.87382852	     -2.31708478	     -0.02970172	     -0.27396250	     23.67207376	    -12.39894578	     -4.04664929	    -65.60492095	    -17.42335263	    -17.70530031	     22.19599484	     25.38564544	      9.30951688	     -4.17801680	    -22.13509038	      0.41544912	    -15.27217360	     -1.50357731	      7.58880463	     -8.20621000	      0.92597837
      2.97000000	    -10.87117599	      7.67034232	     -2.78969225	     -2.30996483	     -0.02810461	     -0.27450156	     24.44699392	    -11.93731918	     -4.08941497	    -65.65874477	    -16.61851481	    -17.06462342	     22.86274979	     24.58835958	      9.10333620	     -3.91291540	    -21.75101935	      0.81091532	    -14.99290590	     -1.47168615	      7.46384014	     -7.86353310	      0.70330233
      2.97500000	    -10.75895141	      7.40402515	     -2.75541425	     -2.30286141	     -0.02643742	     -0.27510307	     25.14429489	    -11.52911604	     -4.03661147	    -65.50431459	    -16.22949957	    -16.69512457	     26.00252911	     23.70984054	      8.96795603	     -3.64699204	    -21.28459498	      1.11552018	    -14.92884464	     -2.09319402	      7.29969041	     -7.55864162	      0.54483464
      2.98000000	    -10.69547866	      7.11481085	     -2.70787968	     -2.29580100	     -0.02488614	     -0.27556290	     25.89471149	    -11.07890950	     -4.05679210	    -65.38744801	    -15.38910148	    -16.03929090	     26.36360116	     22.89609458	      8.76845913	     -3.49287651	    -20.82102716	      1.35786167	    -14.75622217	     -2.06464035	      7.18262685	     -7.24794043	      0.39022121
      2.98500000	    -10.59442195	      6.88331030	     -2.63170194	     -2.28869450	     -0.02339120	     -0.27612893	     26.57567037	    -10.72674873	     -4.10952222	    -65.19003548	    -14.51904826	    -15.36273429	     26.90003413	     22.01275685	      8.65272898	     -3.28002669	    -20.30065923	      1.60000978	    -14.61935304	     -2.07769258	      7.03328407	     -6.99335909	      0.24756044
      2.99000000	    -10.52150206	      6.60976628	     -2.54301858	     -2.28164500	     -0.02192133	     -0.27664980	     27.24370401	    -10.31258871	     -4.18675296	    -64.87441851	    -13.71963016	    -14.80705257	     27.40923754	     21.17084338	      8.47885510	     -3.11128448	    -19.78808631	      1.79447596	    -14.47091136	     -2.10598044	      6.89980748	     -6.70144634	      0.06089710
      2.99500000	    -10.40907191	      6.36073886	     -2.44215427	     -2.27458244	     -0.02048244	     -0.27727732	     27.82436188	     -9.94930155	     -4.27132319	    -64.38862114	    -13.24299925	    -14.55469076	     29.64044388	     20.26661682	      8.35064212	     -2.87164515	    -19.24821869	      2.08049070	    -14.32782591	     -2.53573284	      6.72705445	     -6.42586540	     -0.10563535
      3.00000000	    -10.37517005	      6.11073986	     -2.32955459	     -2.26754278	     -0.01922479	     -0.27780995	     28.48699707	     -9.57087204	     -4.39131110	    -63.92450567	    -12.44665988	    -14.10185890	     29.86201745	     19.47083188	      8.18777632	     -2.74900886	    -18.72777279	      2.30379180	    -14.10980102	     -2.49383329	      6.63446494	     -6.15816779	     -0.27049636
      3.00500000	    -10.31669789	      5.85968416	     -2.19922105	     -2.26050501	     -0.01799736	     -0.27836798	     29.08301665	     -9.20242561	     -4.53701252	    -63.36171000	    -11.69743146	    -13.72517996	     30.07559577	     18.64347700	      8.03019356	     -2.59442734	    -18.19337204	      2.49806633	    -13.92149892	     -2.46874823	      6.51109213	     -5.89096942	     -0.45480427
      3.01000000	    -10.26340154	      5.60844357	     -2.05801537	     -2.25347455	     -0.01685449	     -0.27892499	     29.65405369	     -8.84037101	     -4.70420861	    -62.71350654	    -11.01232933	    -13.43320446	     30.25531448	     17.82593763	      7.87014015	     -2.43371869	    -17.66045252	      2.68912379	    -13.74256327	     -2.44909415	      6.39062416	     -5.62511772	     -0.64402472
      3.01500000	    -10.22077022	      5.35954049	     -1.90704216	     -2.24646908	     -0.01580397	     -0.27947602	     30.20967164	     -8.48699349	     -4.88945631	    -61.98381123	    -10.40028345	    -13.22569291	     30.38575436	     17.03011243	      7.70871361	     -2.26791532	    -17.13774727	      2.86929106	    -13.57312796	     -2.43652554	      6.27774382	     -5.36233582	     -0.83819269
      3.02000000	    -10.18914090	      5.11340416	     -1.74615107	     -2.23947641	     -0.01485110	     -0.28002619	     30.74866075	     -8.14283927	     -5.08795483	    -61.17438424	     -9.86340511	    -13.09157917	     30.46301573	     16.25541022	      7.54833255	     -2.09206554	    -16.62510600	      3.04042493	    -13.41958533	     -2.43342721	      6.17261850	     -5.10336567	     -1.03656102
